<svg id="Layer_1" data-name="Layer 1" xmlns="http://www.w3.org/2000/svg" viewBox="0 0 494.9 298.4"><defs><style>.cls-1{fill:#898989;}.cls-2,.cls-4{fill:#fff;}.cls-3{fill:none;stroke-width:10px;}.cls-3,.cls-4{stroke:#000;stroke-miterlimit:10;}.cls-4{stroke-width:5px;}</style></defs><rect x="149" width="198.7" height="298.07"/><circle cx="149" cy="149" r="149"/><circle cx="345.8" cy="149.4" r="149"/><rect class="cls-1" x="253" y="123.3" width="152" height="109" rx="5"/><g id="Triangle"><path class="cls-2" d="M368.1,137.3H275c-2.8,0-3.5,1.6-1.6,3.6L328,198.6a4.7,4.7,0,0,0,6.9,0l54.6-57.7c1.9-2,1.2-3.6-1.5-3.6Z" transform="translate(-1)"/><path class="cls-3" d="M368.1,137.3H275c-2.8,0-3.5,1.6-1.6,3.6L328,198.6a4.7,4.7,0,0,0,6.9,0l54.6-57.7c1.9-2,1.2-3.6-1.5-3.6Z" transform="translate(-1)"/></g><path class="cls-4" d="M360.1,139.8c-4.4-30.6-17.3-56.8-40.6-77.5-27.1-24-58.9-35.3-95-32.1-39.6,3.6-71.3,22.1-93.8,55.1a121.7,121.7,0,0,0-21.1,57.8,141.6,141.6,0,0,0-.2,23.5c.3,4.3,1.9,6.7,5.9,6.7,14.2,0,28.5-.3,42.8-.6,4.3-.1,4.9-2.6,4.7-6.7-.4-7.6-.9-15.4.2-22.9a2.5,2.5,0,0,1,.1-.8c5.2-33.7,39.1-60.7,71.7-59.6,26.8.9,47.2,12,62,34a60.2,60.2,0,0,1,9.4,23.3h53.9Z" transform="translate(-1)"/><g id="Triangle-2" data-name="Triangle"><path class="cls-2" d="M368.1,137.3H275c-2.8,0-3.5,1.6-1.6,3.6L328,198.6a4.7,4.7,0,0,0,6.9,0l54.6-57.7c1.9-2,1.2-3.6-1.5-3.6Z" transform="translate(-1)"/></g></svg>